<svg xmlns="http://www.w3.org/2000/svg" viewBox="0 0 93 28"><g fill-rule="evenodd"><path d="M15.0481409 0L9.62818004 10.6639703 7.63679061 10.6639703 7.63679061 0 0 0 0 28 7.63679061 28 7.63679061 16.666087 9.51545988 16.666087 15.0481409 28 24 28 16.5886497 13.3346815 23.5585127 0z" transform="translate(-1207.000000, -40.000000) translate(1207.000000, 40.000000)"/><path d="M29 28L37 28 37 0 29 0z" transform="translate(-1207.000000, -40.000000) translate(1207.000000, 40.000000)"/><path d="M50.5826051 28L44 28 44 0 50.2621723 0 59.4173949 14.7097674 59.4173949 0 66 0 66 28 60.7174365 28 50.5826051 12.2179845z" transform="translate(-1207.000000, -40.000000) translate(1207.000000, 40.000000)"/><path d="M72.0577848,15.7057257 C71.9869387,14.9388948 71.9715414,13.9699867 72.0669499,12.517976 C72.7176708,4.06391478 76.704482,0 85.1271935,0 C87.6109311,0 90.5254275,0.447403462 92.5784062,1.21171771 L91.9276853,7.689747 C89.9846876,7.02796272 87.6109311,6.58988016 85.5579524,6.58988016 C81.4611602,6.58988016 80.1688835,7.90412783 79.9489215,12.4061252 C79.912811,13.4673103 79.857179,14.121731 79.9489215,15.5938748 C80.2696994,20.0958722 81.5619761,21.195739 84.6964346,21.195739 C85.2280094,21.195739 85.8787303,21.195739 86.4194702,21.0838881 L86.4194702,13.505992 L93,13.505992 L93,26.4620506 C90.9470214,27.3382157 87.711747,28 84.7972505,28 C76.264558,28 72.7085057,23.8242344 72.0577848,15.7057257 Z" transform="translate(-1207.000000, -40.000000) translate(1207.000000, 40.000000)"/></g></svg>
